<svg xmlns="http://www.w3.org/2000/svg" width="90.072" height="92.741" viewBox="0 0 90.072 92.741">
  <g id="Group_1305" data-name="Group 1305" transform="translate(-54.585 -54)">
    <g id="Help" transform="translate(54.585 54)">
      <rect id="Rectangle_481" data-name="Rectangle 481" width="85.04" height="85.04" transform="translate(0.054)" fill="none"/>
      <path id="Path_146" data-name="Path 146" d="M42.547,0A42.547,42.547,0,1,0,85.094,42.547,42.672,42.672,0,0,0,42.547,0Zm-.425,70.628a5.957,5.957,0,1,1,5.957-5.957A5.816,5.816,0,0,1,42.122,70.628ZM53.609,37.441l-4.68,5.106a5.2,5.2,0,0,0-1.7,3.829,5.174,5.174,0,0,1-5.106,5.106,4.916,4.916,0,0,1-5.106-5.106c0-2.553.425-4.68,3.4-7.658l3.829-4.68c2.127-2.553,2.978-4.255,2.978-5.957a4.464,4.464,0,0,0-4.68-4.68,5.005,5.005,0,0,0-5.106,3.829,5.556,5.556,0,0,1-5.106,2.978,4.464,4.464,0,0,1-4.68-4.68,4.626,4.626,0,0,1,.425-2.127c1.7-5.106,6.808-8.935,14.466-8.935,8.935,0,14.891,5.957,14.891,13.615A13.959,13.959,0,0,1,53.609,37.441Z" fill="#003b5c"/>
    </g>
    <path id="Polygon_135" data-name="Polygon 135" d="M9.837,0l9.837,19.674H0Z" transform="translate(144.657 132.829) rotate(135)" fill="#003b5c"/>
  </g>
</svg>
