<svg xmlns="http://www.w3.org/2000/svg" width="74.622" height="18.708" viewBox="0 0 74.622 18.708">
  <g id="Group_1417" data-name="Group 1417" transform="translate(-1491.211 -886)">
    <g id="Group_1403" data-name="Group 1403" transform="translate(1491 886)">
      <path id="Path_550" data-name="Path 550" d="M58.323,8.716c-.222,1.441-1.334,1.441-2.411,1.441H55.3l.43-2.689a.338.338,0,0,1,.335-.282h.281c.734,0,1.425,0,1.782.413a1.328,1.328,0,0,1,.2,1.117m-.468-3.758H53.794a.563.563,0,0,0-.558.471L51.594,15.72a.337.337,0,0,0,.334.387h2.084a.4.4,0,0,0,.39-.329l.467-2.919a.561.561,0,0,1,.556-.471H56.71c2.675,0,4.218-1.279,4.622-3.816a3.063,3.063,0,0,0-.518-2.589,3.789,3.789,0,0,0-2.959-1.025M29.361,8.716c-.223,1.441-1.335,1.441-2.413,1.441h-.612l.43-2.689a.336.336,0,0,1,.333-.282h.282c.732,0,1.424,0,1.781.413a1.321,1.321,0,0,1,.2,1.117m-.469-3.758H24.831a.565.565,0,0,0-.558.471L22.632,15.72a.336.336,0,0,0,.334.387H24.9a.563.563,0,0,0,.558-.47l.443-2.778a.562.562,0,0,1,.558-.471h1.284c2.675,0,4.22-1.279,4.622-3.816a3.06,3.06,0,0,0-.518-2.589,3.792,3.792,0,0,0-2.96-1.025m9.428,7.454a2.163,2.163,0,0,1-2.195,1.836,1.65,1.65,0,0,1-1.306-.52,1.613,1.613,0,0,1-.305-1.349,2.168,2.168,0,0,1,2.18-1.849,1.53,1.53,0,0,1,1.626,1.882M41.029,8.67H39.084a.338.338,0,0,0-.334.284l-.086.536L38.529,9.3a2.787,2.787,0,0,0-2.3-.807,4.454,4.454,0,0,0-4.341,3.867,3.594,3.594,0,0,0,.724,2.953,3.06,3.06,0,0,0,2.449.977,3.739,3.739,0,0,0,2.692-1.1l-.086.535a.336.336,0,0,0,.335.387h1.75a.564.564,0,0,0,.558-.471l1.051-6.579a.337.337,0,0,0-.335-.387m26.253,3.742a2.163,2.163,0,0,1-2.195,1.836,1.65,1.65,0,0,1-1.306-.52,1.617,1.617,0,0,1-.3-1.349,2.167,2.167,0,0,1,2.179-1.849,1.53,1.53,0,0,1,1.626,1.882m2.71-3.742H68.047a.34.34,0,0,0-.335.284l-.084.536L67.491,9.3a2.786,2.786,0,0,0-2.3-.807,4.454,4.454,0,0,0-4.34,3.867,3.6,3.6,0,0,0,.725,2.953,3.058,3.058,0,0,0,2.448.977,3.739,3.739,0,0,0,2.692-1.1l-.087.534a.337.337,0,0,0,.335.387h1.75a.563.563,0,0,0,.558-.471l1.051-6.579a.336.336,0,0,0-.334-.386" fill="#fff"/>
      <path id="Path_551" data-name="Path 551" d="M51.385,8.67H49.43a.57.57,0,0,0-.467.246l-2.7,3.924L45.125,9.068a.564.564,0,0,0-.54-.4H42.663a.336.336,0,0,0-.32.443L44.5,15.357,42.471,18.18a.334.334,0,0,0,.276.528H44.7a.568.568,0,0,0,.464-.24l6.5-9.273a.334.334,0,0,0-.278-.525" fill="#fff"/>
      <path id="Path_552" data-name="Path 552" d="M72.283,5.24,70.618,15.721a.335.335,0,0,0,.334.386h1.677a.561.561,0,0,0,.556-.471L74.828,5.345a.336.336,0,0,0-.334-.387H72.618a.337.337,0,0,0-.335.282" fill="#fff"/>
      <g id="Group_1402" data-name="Group 1402">
        <path id="Path_553" data-name="Path 553" d="M6.24,4.772a.73.73,0,0,1,.409-.543.74.74,0,0,1,.318-.07h4.612a9.74,9.74,0,0,1,1.52.108c.134.022.263.046.389.074s.247.058.366.092c.059.017.117.034.175.054a3.992,3.992,0,0,1,.637.267,3.688,3.688,0,0,0-.8-3.342C12.99.423,11.407,0,9.38,0H3.5a.84.84,0,0,0-.831.7L.217,16.056a.5.5,0,0,0,.5.577H4.348l.911-5.717Z" fill="#fff"/>
      </g>
      <path id="Path_554" data-name="Path 554" d="M14.666,4.754c-.019.111-.037.224-.06.339-.776,3.937-3.43,5.3-6.82,5.3H6.059a.834.834,0,0,0-.827.7l-.884,5.538L4.1,18.2a.438.438,0,0,0,.436.5H7.6a.733.733,0,0,0,.727-.614l.03-.153.577-3.615.037-.2a.734.734,0,0,1,.728-.614h.458c2.965,0,5.287-1.191,5.965-4.634a3.917,3.917,0,0,0-.612-3.485,2.928,2.928,0,0,0-.839-.639" fill="#fff" opacity="0.7"/>
    </g>
    <path id="Path_555" data-name="Path 555" d="M152.853,16.434c-.118-.034-.24-.066-.366-.092s-.256-.052-.389-.073a9.609,9.609,0,0,0-1.521-.111h-4.61a.734.734,0,0,0-.318.072.724.724,0,0,0-.409.544l-.98,6.142-.028.179a.834.834,0,0,1,.828-.7h1.726c3.39,0,6.044-1.361,6.82-5.3.023-.116.042-.229.06-.339a4.317,4.317,0,0,0-.637-.267c-.059-.019-.117-.037-.176-.054" transform="translate(1352 874)" fill="#fff" opacity="0.87"/>
  </g>
</svg>
