<?xml version="1.0" encoding="UTF-8"?>
<svg width="491px" height="446px" viewBox="0 0 491 446" version="1.1" xmlns="http://www.w3.org/2000/svg" xmlns:xlink="http://www.w3.org/1999/xlink">
    <title>shopping-bag</title>
    <g id="Page-1" stroke="none" stroke-width="1" fill="none" fill-rule="evenodd">
        <g id="shopping-bag" fill-rule="nonzero">
            <path d="M211.7,435.75 C211.7,430.25 207.3,425.85 201.8,425.85 L63.7,425.85 C39.5,425.85 19.9,406.15 19.9,382.05 L19.9,96.55 L79.9,96.55 L79.9,133.85 C79.9,139.35 84.3,143.75 89.8,143.75 C95.3,143.75 99.7,139.35 99.7,133.85 L99.7,96.55 L219,96.55 L219,133.85 C219,139.35 223.4,143.75 228.9,143.75 C234.4,143.75 238.8,139.35 238.8,133.85 L238.8,96.55 L298.8,96.55 L298.8,116.05 C298.8,121.55 303.2,125.95 308.7,125.95 C314.2,125.95 318.6,121.55 318.6,116.05 L318.6,86.65 C318.6,81.15 314.2,76.75 308.7,76.75 L238.7,76.75 C237,34.45 202.1,0.45 159.3,0.45 C116.5,0.45 81.6,34.35 79.9,76.75 L9.9,76.75 C4.4,76.75 -2.84217094e-14,81.15 -2.84217094e-14,86.65 L-2.84217094e-14,382.05 C-2.84217094e-14,417.15 28.5,445.65 63.6,445.65 L201.7,445.65 C207.3,445.65 211.7,441.15 211.7,435.75 Z M159.3,20.25 C191.1,20.25 217.2,45.35 218.9,76.75 L99.7,76.75 C101.4,45.35 127.5,20.25 159.3,20.25 Z" id="Shape" fill="#0C2340"></path>
            <path d="M295.8,199.75 L295.8,211.05 L241.3,211.05 C235.8,211.05 231.4,215.45 231.4,220.95 L231.4,394.65 C231.4,422.75 254.2,445.55 282.3,445.55 L439.2,445.55 C467.3,445.55 490.1,422.75 490.1,394.65 L490.1,220.95 C490.1,215.45 485.7,211.05 480.2,211.05 L425.7,211.05 L425.7,199.75 C425.7,163.95 396.6,134.75 360.7,134.75 C324.9,134.85 295.8,163.95 295.8,199.75 Z M415.8,265.35 C421.3,265.35 425.7,260.95 425.7,255.45 L425.7,230.85 L470.3,230.85 L470.3,394.65 C470.3,411.85 456.3,425.75 439.2,425.75 L282.3,425.75 C265.1,425.75 251.2,411.75 251.2,394.65 L251.2,230.85 L295.8,230.85 L295.8,255.45 C295.8,260.95 300.2,265.35 305.7,265.35 C311.2,265.35 315.6,260.95 315.6,255.45 L315.6,230.85 L405.9,230.85 L405.9,255.45 C405.9,260.95 410.3,265.35 415.8,265.35 Z M405.9,199.75 L405.9,211.05 L315.6,211.05 L315.6,199.75 C315.6,174.85 335.9,154.55 360.8,154.55 C385.6,154.65 405.9,174.85 405.9,199.75 Z" id="Shape" fill="#E4002B"></path>
        </g>
    </g>
</svg>