<?xml version="1.0" encoding="UTF-8"?>
<svg width="64px" height="64px" viewBox="0 0 64 64" version="1.1" xmlns="http://www.w3.org/2000/svg" xmlns:xlink="http://www.w3.org/1999/xlink">
    <title>signout</title>
    <g id="Page-1" stroke="none" stroke-width="1" fill="none" fill-rule="evenodd">
        <g id="signout" fill="#E4002B" fill-rule="nonzero">
            <path d="M57.2106659,0 L27.7895993,0 C24.0398776,0 21,3.0700425 21,6.85713807 L21,20.5714142 C21,21.8338241 22.0133809,22.8571716 23.2633324,22.8571716 C24.5132838,22.8571716 25.5265321,21.8338241 25.5265321,20.5714142 L25.5265321,6.85713807 C25.5265321,5.59472824 26.5397805,4.57138074 27.7897319,4.57138074 L57.2107985,4.57138074 C58.4607499,4.57138074 59.4739983,5.59472824 59.4739983,6.85713807 L59.4739983,57.1428619 C59.4739983,58.4052718 58.4607499,59.4286193 57.2107985,59.4286193 L27.7895993,59.4286193 C26.5396479,59.4286193 25.5263995,58.4052718 25.5263995,57.1428619 L25.5263995,43.4285858 C25.5263995,42.1661759 24.5131512,41.1428284 23.2631998,41.1428284 C22.0132483,41.1428284 21,42.1661759 21,43.4285858 L21,57.1428619 C21,60.9299575 24.039745,64 27.7894667,64 L57.2105333,64 C60.960255,64 64,60.9299575 64,57.1428619 L64,6.85713807 C64,3.0700425 60.9603876,0 57.2106659,0 Z" id="Path"></path>
            <path d="M45.7139828,30.2213802 L7.80116106,30.2213802 L15.3284902,22.8126783 C16.2055023,21.9189041 16.1803223,20.4946658 15.2722372,19.6314751 C14.3863854,18.7895083 12.9820679,18.7895083 12.0963501,19.6314751 L0.667067544,30.8805057 C0.454779208,31.0895803 0.286957577,31.3380706 0.173379969,31.6117395 C-0.057793323,32.1621092 -0.057793323,32.7802371 0.173379969,33.3306068 C0.287493321,33.6051985 0.456118567,33.8544797 0.669344454,34.0640816 L12.0984931,45.3131122 C12.9755051,46.2068863 14.4225481,46.2316694 15.3306332,45.3684787 C16.2387183,44.505288 16.2638983,43.0810497 15.3868863,42.1872756 C15.3685371,42.1685564 15.3497861,42.1501009 15.3306332,42.1319091 L7.80116106,34.7209661 L45.7141167,34.7209661 C46.9765961,34.7209661 48,33.7136905 48,32.4711072 C48,31.2285239 46.9764622,30.2213802 45.7139828,30.2213802 Z" id="Path"></path>
        </g>
    </g>
</svg>