<svg id="Layer_2" data-name="Layer 2" xmlns="http://www.w3.org/2000/svg" width="115.67" height="106" viewBox="0 0 115.67 106">
  <g id="Layer_1" data-name="Layer 1" transform="translate(0 0)">
    <path id="Path_242" data-name="Path 242" d="M92.677,72.159a14.2,14.2,0,0,0,9.967-4.143h0a14.223,14.223,0,0,0-7.658-24.077,4.419,4.419,0,0,1-3.766-4.356h0A30.618,30.618,0,0,0,32.509,27.444a4.431,4.431,0,0,1-3.992,2.686A21.039,21.039,0,0,0,15.06,66h0a20.989,20.989,0,0,0,14.888,6.164H44.61a4.456,4.456,0,0,1,0,8.9H29.935A29.839,29.839,0,0,1,8.783,72.3h0a29.927,29.927,0,0,1,16.7-50.753,39.521,39.521,0,0,1,74.567,14.524,23.286,23.286,0,0,1,10.206,7.017,22.872,22.872,0,0,1,5.436,14.863,23.123,23.123,0,0,1-6.754,16.319h0a22.885,22.885,0,0,1-14,6.628,3.867,3.867,0,0,1-1,.126H72.591a4.456,4.456,0,1,1,0-8.9H92.677ZM55.946,33.9h0v.063L34.605,55.3a2.674,2.674,0,1,0,3.766,3.766L55.23,42.194v61.122a2.674,2.674,0,0,0,5.348,0V42.194L77.311,59a2.663,2.663,0,0,0,3.766-3.766L59.737,33.9l-.075-.113h0l-.075-.063h-.075a.879.879,0,0,0-.314-.2h0l-.2-.176h-.075a2.878,2.878,0,0,0-.351-.113h-.063l-.2-.075h-.954l-.239.075h0l-.364.113h-.063l-.1.063a.615.615,0,0,0-.3.2H56.2v.063h0l-.126.113ZM57.741,33.08Z" transform="translate(-0.017 0.01)" fill="#0c2340"/>
  </g>
</svg>
